<svg width="87" height="44" viewBox="0 0 87 44" fill="none" xmlns="http://www.w3.org/2000/svg">
<path fill-rule="evenodd" clip-rule="evenodd" d="M49.1129 40.8571L39.2903 33V28.2857L49.1129 22V40.8571ZM31.1048 18.876C26.5734 18.876 22.9013 15.3497 22.9013 11C22.9013 6.65029 26.5734 3.12559 31.1048 3.12559C35.6363 3.12559 39.3083 6.65029 39.3083 11C39.3083 15.3497 35.6363 18.876 31.1048 18.876ZM36.0161 37.7143C36.0161 39.4491 34.5493 40.8571 32.7419 40.8571H6.54839C4.74103 40.8571 3.27419 39.4491 3.27419 37.7143V25.1429C3.27419 23.408 4.74103 22 6.54839 22H32.7419C34.5493 22 36.0161 23.408 36.0161 25.1429V37.7143ZM3.27419 12.5714C3.27419 9.10014 6.20623 6.28571 9.82258 6.28571C13.4389 6.28571 16.371 9.10014 16.371 12.5714C16.371 16.0427 13.4389 18.8571 9.82258 18.8571C6.20623 18.8571 3.27419 16.0427 3.27419 12.5714ZM49.1129 18.8571L39.2903 25.1429C39.2903 23.2351 38.3866 21.5474 36.9886 20.3956C40.3151 18.469 42.5645 15.0009 42.5645 11C42.5645 4.92486 37.4339 0 31.1048 0C24.7758 0 19.6452 4.92486 19.6452 11C19.6452 14.0831 20.9745 16.8599 23.1011 18.8571H17.0962C18.6629 17.1867 19.6452 14.9977 19.6452 12.5714C19.6452 7.36529 15.2463 3.14286 9.82258 3.14286C4.39888 3.14286 0 7.36529 0 12.5714C0 15.4141 1.33587 17.93 3.40844 19.6601C1.38662 20.7287 0 22.77 0 25.1429V37.7143C0 41.1856 2.93204 44 6.54839 44H32.7419C36.3583 44 39.2903 41.1856 39.2903 37.7143V36.1429L49.1129 44C50.9203 44 52.3871 42.592 52.3871 40.8571V22C52.3871 20.2651 50.9203 18.8571 49.1129 18.8571Z" fill="white"/>
<path fill-rule="evenodd" clip-rule="evenodd" d="M84.1796 24.194C84.5057 24.0775 84.8618 23.9504 85.3217 23.8513C85.7731 23.7541 86.3134 23.6919 86.9999 23.6923V24.4252C86.0973 24.4273 85.5973 24.5386 85.1295 24.6835C84.9782 24.7303 84.8281 24.784 84.6712 24.8401C84.3453 24.9565 83.9896 25.0837 83.5304 25.1826C83.0786 25.2792 82.5383 25.342 81.8521 25.3414C80.8245 25.3437 80.1179 25.1974 79.5606 25.0202C79.3688 24.9591 79.1968 24.8981 79.0323 24.8398C78.7165 24.7277 78.4288 24.6256 78.0831 24.5527C77.73 24.4775 77.3054 24.4256 76.7043 24.4252C75.8034 24.4273 75.3037 24.5386 74.8361 24.6835C74.6845 24.7304 74.5342 24.7841 74.3768 24.8404C74.0516 24.9568 73.6964 25.0838 73.2383 25.1826C72.7873 25.2792 72.2469 25.342 71.5607 25.3414C70.5331 25.3437 69.8272 25.1974 69.2696 25.0202C69.0783 24.9592 68.9068 24.8983 68.7429 24.8401C68.4267 24.7279 68.139 24.6257 67.7924 24.5527C67.4403 24.4775 67.0157 24.4256 66.4151 24.4252C65.5142 24.4273 65.0146 24.5386 64.5467 24.6835C64.3952 24.7304 64.2449 24.7841 64.0876 24.8404C63.7624 24.9567 63.4072 25.0838 62.9488 25.1826C62.4978 25.2792 61.9578 25.342 61.2715 25.3414C60.2445 25.3437 59.5383 25.1974 58.9814 25.0198C58.7897 24.9588 58.6179 24.8978 58.4537 24.8395C58.1384 24.7276 57.8512 24.6257 57.5052 24.5527C57.1536 24.4775 56.7288 24.4256 56.1289 24.4253V23.6923C57.1565 23.6902 57.862 23.8366 58.4196 24.0138C58.6118 24.0749 58.784 24.1361 58.9486 24.1945C59.2636 24.3063 59.5506 24.4082 59.8954 24.4813C60.2475 24.5559 60.6716 24.6084 61.2717 24.6084C62.1731 24.6063 62.6733 24.495 63.1407 24.3501C63.2908 24.3035 63.4398 24.2503 63.5956 24.1946C63.9218 24.0779 64.2782 23.9505 64.738 23.8513C65.1901 23.7541 65.7297 23.6919 66.4154 23.6923C67.4429 23.6902 68.1496 23.8365 68.7069 24.0138C68.8994 24.075 69.0717 24.1362 69.2364 24.1946C69.5514 24.3064 69.8383 24.4082 70.1837 24.4813C70.5362 24.5559 70.961 24.6084 71.5609 24.6084C72.4625 24.6063 72.9627 24.495 73.4298 24.3501C73.5799 24.3035 73.7289 24.2503 73.8848 24.1945C74.211 24.0779 74.5675 23.9505 75.0272 23.8513C75.4792 23.7541 76.019 23.6919 76.7045 23.6923C77.7331 23.6902 78.4393 23.8365 78.9971 24.0138C79.1896 24.075 79.362 24.1361 79.5268 24.1946C79.8419 24.3064 80.129 24.4082 80.4745 24.4813C80.8272 24.5559 81.2517 24.6084 81.8523 24.6084C82.7544 24.6063 83.2549 24.495 83.7222 24.3501C83.8732 24.3034 84.023 24.2499 84.1796 24.194ZM83.7221 29.4415C83.2548 29.5865 82.7543 29.6978 81.8522 29.6999C81.2516 29.6999 80.827 29.6473 80.4744 29.5728C80.129 29.4997 79.842 29.3979 79.527 29.2862L79.5269 29.2862C79.3621 29.2277 79.1896 29.1665 78.997 29.1053C78.4392 28.928 77.733 28.7817 76.7044 28.7837C76.0189 28.7834 75.4791 28.8456 75.0271 28.9428C74.5673 29.042 74.2109 29.1694 73.8847 29.286C73.7288 29.3417 73.5798 29.395 73.4297 29.4415C72.9626 29.5865 72.4624 29.6978 71.5608 29.6999C70.9609 29.6999 70.5361 29.6473 70.1835 29.5728C69.8383 29.4997 69.5515 29.398 69.2366 29.2862C69.0719 29.2277 68.8994 29.1665 68.7068 29.1053C68.1495 28.928 67.4428 28.7817 66.4153 28.7837C65.7295 28.7834 65.19 28.8456 64.7379 28.9428C64.278 29.042 63.9217 29.1694 63.5955 29.286L63.5955 29.286C63.4396 29.3417 63.2907 29.395 63.1406 29.4415C62.6732 29.5865 62.173 29.6978 61.2716 29.6999C60.6715 29.6999 60.2474 29.6473 59.8953 29.5728C59.5506 29.4997 59.2637 29.3979 58.9488 29.2861C58.7841 29.2276 58.6118 29.1665 58.4195 29.1053C57.862 28.928 57.1565 28.7817 56.1289 28.7837V29.5168C56.7288 29.5171 57.1536 29.569 57.5052 29.6442C57.8514 29.7172 58.1386 29.8191 58.4541 29.9311C58.6181 29.9894 58.7898 30.0503 58.9814 30.1113C59.5383 30.2889 60.2445 30.4352 61.2715 30.4329C61.9578 30.4335 62.4978 30.3707 62.9488 30.2741C63.4071 30.1753 63.7623 30.0483 64.0874 29.932C64.2448 29.8757 64.3951 29.8219 64.5467 29.7751C65.0146 29.6301 65.5142 29.5188 66.4152 29.5167C67.0158 29.5171 67.4403 29.5689 67.7924 29.6442C68.1391 29.7172 68.4269 29.8194 68.7432 29.9317L68.7432 29.9317C68.907 29.9899 69.0784 30.0507 69.2696 30.1117C69.8272 30.2889 70.5331 30.4352 71.5607 30.4329C72.2469 30.4335 72.7873 30.3707 73.2383 30.2741C73.6963 30.1753 74.0515 30.0483 74.3766 29.932C74.534 29.8757 74.6845 29.8219 74.8361 29.7751C75.3037 29.6301 75.8034 29.5188 76.7043 29.5167C77.3054 29.5171 77.73 29.5689 78.0831 29.6442C78.4288 29.7171 78.7165 29.8192 79.0323 29.9313C79.1968 29.9896 79.3688 30.0506 79.5606 30.1117C80.1179 30.2889 80.8245 30.4352 81.8521 30.4329C82.5383 30.4335 83.0786 30.3707 83.5304 30.2741C83.9895 30.1752 84.3452 30.0481 84.6709 29.9317C84.828 29.8755 84.9781 29.8219 85.1295 29.7751C85.5973 29.6301 86.0973 29.5188 86.9999 29.5167V28.7837C86.3132 28.7834 85.7729 28.8455 85.3216 28.9427C84.8619 29.0418 84.5059 29.1689 84.1799 29.2853C84.0231 29.3413 83.8733 29.3948 83.7221 29.4415ZM81.8522 34.7909C82.7543 34.7888 83.2548 34.6775 83.7221 34.5326C83.873 34.4859 84.0226 34.4325 84.1791 34.3766C84.5054 34.2601 84.8615 34.133 85.3216 34.034C85.7729 33.9367 86.3132 33.8746 86.9999 33.8749V34.6079C86.0973 34.61 85.5973 34.7213 85.1295 34.8662C84.9781 34.913 84.828 34.9667 84.671 35.0228L84.671 35.0228L84.6709 35.0228C84.3452 35.1392 83.9895 35.2664 83.5304 35.3653C83.0786 35.4618 82.5383 35.5247 81.8521 35.524C80.8245 35.5264 80.1179 35.38 79.5606 35.2028C79.3687 35.1417 79.1965 35.0807 79.032 35.0223L79.032 35.0223C78.7163 34.9103 78.4287 34.8082 78.0831 34.7353C77.73 34.6601 77.3054 34.6082 76.7043 34.6079C75.8034 34.6099 75.3037 34.7212 74.8361 34.8662C74.6845 34.913 74.534 34.9668 74.3766 35.0232C74.0515 35.1394 73.6963 35.2665 73.2383 35.3653C72.7873 35.4618 72.2469 35.5246 71.5607 35.5239C70.5331 35.5263 69.8272 35.38 69.2696 35.2028C69.0783 35.1418 68.9068 35.0809 68.7429 35.0227L68.7429 35.0227C68.4267 34.9105 68.139 34.8083 67.7924 34.7352C67.4403 34.66 67.0158 34.6082 66.4152 34.6078C65.5142 34.6099 65.0146 34.7212 64.5467 34.8662C64.3951 34.913 64.2448 34.9668 64.0874 35.0231L64.0874 35.0231C63.7623 35.1393 63.4071 35.2664 62.9488 35.3652C62.4978 35.4617 61.9578 35.5246 61.2715 35.5239C60.2445 35.5263 59.5383 35.38 58.9814 35.2024C58.7898 35.1414 58.618 35.0804 58.4539 35.0221L58.4539 35.0221C58.1385 34.9101 57.8513 34.8082 57.5052 34.7352C57.1536 34.66 56.7288 34.6081 56.1289 34.6078V33.8748C57.1565 33.8727 57.862 34.0191 58.4195 34.1963C58.6118 34.2575 58.7841 34.3187 58.9488 34.3771L58.9488 34.3771C59.2637 34.4889 59.5506 34.5908 59.8953 34.6638C60.2474 34.7383 60.6715 34.7909 61.2716 34.7909C62.173 34.7888 62.6732 34.6775 63.1406 34.5326C63.2906 34.486 63.4396 34.4328 63.5954 34.3771C63.9216 34.2605 64.278 34.1331 64.7379 34.0338C65.19 33.9366 65.7295 33.8744 66.4153 33.8748C67.4428 33.8727 68.1495 34.0191 68.7068 34.1963C68.8994 34.2576 69.0719 34.3188 69.2367 34.3773C69.5515 34.489 69.8383 34.5908 70.1835 34.6638C70.5361 34.7383 70.9609 34.7909 71.5608 34.7909C72.4624 34.7888 72.9626 34.6775 73.4297 34.5326C73.5798 34.486 73.7288 34.4328 73.8846 34.3771L73.8846 34.3771C74.2109 34.2605 74.5673 34.1331 75.0271 34.0338C75.4791 33.9366 76.0189 33.8744 76.7044 33.8748C77.733 33.8727 78.4392 34.0191 78.997 34.1963C79.1896 34.2575 79.3621 34.3188 79.527 34.3772L79.527 34.3772L79.527 34.3772C79.842 34.489 80.129 34.5908 80.4744 34.6638C80.827 34.7383 81.2516 34.7909 81.8522 34.7909ZM81.8522 39.8823C82.7543 39.8802 83.2548 39.7689 83.7221 39.624C83.8731 39.5773 84.0228 39.5238 84.1795 39.4679L84.1795 39.4679L84.1795 39.4679C84.5056 39.3514 84.8617 39.2243 85.3216 39.1253C85.7729 39.0281 86.3132 38.9659 86.9999 38.9663V39.6993C86.0973 39.7013 85.5973 39.8126 85.1295 39.9576C84.9783 40.0043 84.8285 40.0579 84.6716 40.1139L84.6713 40.114L84.6712 40.1141C84.3454 40.2305 83.9896 40.3577 83.5304 40.4567C83.0786 40.5532 82.5383 40.6161 81.8521 40.6154C80.8245 40.6178 80.1179 40.4714 79.5606 40.2942C79.3687 40.2331 79.1965 40.172 79.032 40.1137C78.7163 40.0017 78.4287 39.8996 78.0831 39.8267C77.73 39.7515 77.3054 39.6996 76.7043 39.6993C75.8034 39.7013 75.3037 39.8126 74.8361 39.9576C74.6845 40.0044 74.534 40.0582 74.3766 40.1145C74.0515 40.2308 73.6963 40.3578 73.2383 40.4567C72.7873 40.5532 72.2469 40.6161 71.5607 40.6154C70.5331 40.6178 69.8272 40.4714 69.2696 40.2942C69.0784 40.2332 68.9069 40.1723 68.743 40.1142L68.7429 40.1142L68.7429 40.1141C68.4267 40.0019 68.139 39.8997 67.7924 39.8267C67.4403 39.7515 67.0158 39.6996 66.4152 39.6993C65.5142 39.7013 65.0146 39.8126 64.5467 39.9576C64.3952 40.0044 64.245 40.0581 64.0878 40.1143L64.0874 40.1145L64.0874 40.1145C63.7623 40.2308 63.4071 40.3578 62.9488 40.4567C62.4978 40.5532 61.9578 40.6161 61.2715 40.6154C60.2445 40.6178 59.5383 40.4714 58.9814 40.2938C58.7897 40.2328 58.6179 40.1718 58.4537 40.1136C58.1384 40.0016 57.8512 39.8997 57.5052 39.8267C57.1536 39.7515 56.7288 39.6996 56.1289 39.6993V38.9663C57.1565 38.9642 57.862 39.1106 58.4195 39.2878C58.6119 39.349 58.7842 39.4102 58.949 39.4687L58.949 39.4687L58.949 39.4687C59.2638 39.5804 59.5506 39.6822 59.8953 39.7553C60.2474 39.8298 60.6715 39.8824 61.2716 39.8824C62.173 39.8803 62.6732 39.769 63.1406 39.624C63.2906 39.5775 63.4396 39.5243 63.5954 39.4686C63.9216 39.352 64.278 39.2246 64.7379 39.1253C65.19 39.0281 65.7295 38.9659 66.4153 38.9663C67.4428 38.9642 68.1495 39.1105 68.7068 39.2878C68.8994 39.349 69.0719 39.4102 69.2368 39.4687L69.2368 39.4688L69.2369 39.4688L69.2369 39.4688C69.5516 39.5805 69.8383 39.6822 70.1835 39.7553C70.5361 39.8298 70.9609 39.8823 71.5608 39.8823C72.4624 39.8802 72.9626 39.769 73.4297 39.624C73.5798 39.5775 73.7288 39.5242 73.8846 39.4685L73.8846 39.4685C74.2109 39.3519 74.5673 39.2245 75.0271 39.1253C75.4791 39.028 76.0189 38.9659 76.7044 38.9662C77.733 38.9642 78.4392 39.1105 78.997 39.2877C79.1896 39.349 79.3622 39.4102 79.5271 39.4687L79.5272 39.4687C79.8421 39.5804 80.1291 39.6822 80.4744 39.7552C80.827 39.8297 81.2516 39.8823 81.8522 39.8823Z" fill="white"/>
</svg>
